<svg xmlns="http://www.w3.org/2000/svg" viewBox="0 0 32 32">
  <defs>
    <linearGradient id="fireGradient" x1="0%" y1="100%" x2="0%" y2="0%">
      <stop offset="0%" style="stop-color:#ff4500"/>
      <stop offset="50%" style="stop-color:#ff6b00"/>
      <stop offset="100%" style="stop-color:#ffd700"/>
    </linearGradient>
  </defs>
  <path fill="url(#fireGradient)" d="M16 2c0 0-3 4-3 8 0 2.5 1.5 4.5 3 6-1.5-1-2.5-2.5-2.5-4.5 0-1.5 0.5-3 1.5-4.5-1 2-1.5 4-1.5 6 0 4 3 7 6 8-2-1-3.5-3-3.5-5.5 0-3 2-5.5 4-7.5-1 1.5-1.5 3-1.5 4.5 0 2 1 3.5 2.5 4.5 1.5-1.5 3-3.5 3-6 0-4-3-8-3-8-1 2-2 3.5-2 5.5 0 1.5 0.5 2.5 1 3.5-1-0.5-2-2-2-4 0-1.5 0.5-3 1-4-0.5 0.5-1 1.5-1 2.5 0 1 0.5 2 1 2.5-1-0.5-1.5-1.5-1.5-2.5 0-1.5 0.5-3 1.5-4.5z"/>
  <ellipse cx="16" cy="28" rx="6" ry="2" fill="#ff4500" opacity="0.3"/>
</svg>
